<?xml version="1.0" encoding="UTF-8" standalone="no"?>
<!-- Created with Inkscape (http://www.inkscape.org/) -->

<svg
   xmlns:dc="http://purl.org/dc/elements/1.1/"
   xmlns:cc="http://creativecommons.org/ns#"
   xmlns:rdf="http://www.w3.org/1999/02/22-rdf-syntax-ns#"
   xmlns:svg="http://www.w3.org/2000/svg"
   xmlns="http://www.w3.org/2000/svg"
   xmlns:sodipodi="http://sodipodi.sourceforge.net/DTD/sodipodi-0.dtd"
   xmlns:inkscape="http://www.inkscape.org/namespaces/inkscape"
   width="210mm"
   height="297mm"
   viewBox="0 0 744.09448819 1052.3622047"
   id="svg2"
   version="1.1"
   inkscape:version="0.91 r13725"
   sodipodi:docname="LARMGaming.svg"
   inkscape:export-filename="/Users/annamoyers/Desktop/g6373.png"
   inkscape:export-xdpi="90"
   inkscape:export-ydpi="90">
  <defs
     id="defs4">
    <clipPath
       id="clipPath4415"
       clipPathUnits="userSpaceOnUse">
      <path
         inkscape:connector-curvature="0"
         id="path4417"
         d="M 0,780 1096,780 1096,0 0,0 0,780 Z" />
    </clipPath>
    <clipPath
       clipPathUnits="userSpaceOnUse"
       id="clipPath7498">
      <g
         id="g7500"
         transform="matrix(0.4086528,0.00871082,-0.00731428,0.81523502,8.7423888,-287.6027)">
        <path
           inkscape:connector-curvature="0"
           d="m 359.19938,474.30808 c -1.17938,-4.0885 -0.95079,-8.25784 -0.20782,-12.39046 2.52685,-8.86847 6.51387,-17.55751 11.31138,-26.09005 5.40493,-8.55442 11.4041,-16.98715 17.5865,-25.3539 0,0 16.66559,-8.48618 16.66559,-8.48618 l 0,0 c -6.8746,8.39225 -13.07947,17.01624 -18.69363,25.73061 -4.58142,8.26725 -8.31008,16.71089 -10.5304,25.31092 -0.75097,3.86147 -1.12184,7.78417 0.37656,11.57235 0,0 -16.50818,9.70671 -16.50818,9.70671 z"
           id="path7502"
           style="opacity:0.78600003;fill:#aa5406;fill-opacity:1;stroke:none;stroke-width:2.5999999;stroke-miterlimit:4;stroke-dasharray:none;stroke-opacity:1" />
        <ellipse
           id="ellipse7504"
           style="opacity:0.656;fill:#aa5406;fill-opacity:1;stroke:none;stroke-width:2.43600011;stroke-miterlimit:4;stroke-dasharray:none;stroke-opacity:1"
           ry="73.207603"
           rx="131.57237"
           cy="529.24603"
           cx="368.87363" />
      </g>
    </clipPath>
  </defs>
  <sodipodi:namedview
     id="base"
     pagecolor="#ffffff"
     bordercolor="#666666"
     borderopacity="1.0"
     inkscape:pageopacity="0.0"
     inkscape:pageshadow="2"
     inkscape:zoom="1"
     inkscape:cx="330.22005"
     inkscape:cy="439.98878"
     inkscape:document-units="px"
     inkscape:current-layer="layer2"
     showgrid="false"
     inkscape:window-width="1399"
     inkscape:window-height="855"
     inkscape:window-x="41"
     inkscape:window-y="1"
     inkscape:window-maximized="1" />
  <metadata
     id="metadata7">
    <rdf:RDF>
      <cc:Work
         rdf:about="">
        <dc:format>image/svg+xml</dc:format>
        <dc:type
           rdf:resource="http://purl.org/dc/dcmitype/StillImage" />
        <dc:title></dc:title>
      </cc:Work>
    </rdf:RDF>
  </metadata>
  <g
     inkscape:label="Layer 1"
     inkscape:groupmode="layer"
     id="layer1" />
  <g
     inkscape:groupmode="layer"
     id="layer2"
     inkscape:label="Layer 2">
    <g
       id="g8371"
       inkscape:export-xdpi="300"
       inkscape:export-ydpi="300">
      <g
         clip-path="url(#clipPath7498)"
         style="opacity:1"
         transform="matrix(2.4465972,-0.02614199,0.02195083,1.2264056,-15.075986,352.9461)"
         id="g6299">
        <g
           id="g4493"
           transform="matrix(0.43747261,0,0,-0.4553055,224.59477,166.44708)">
          <path
             d="m 0,0 -334.596,-1 0,335 334,0 L 0,0 Z"
             style="fill:#fffce8;fill-opacity:1;fill-rule:nonzero;stroke:none"
             id="path4495"
             inkscape:connector-curvature="0" />
        </g>
        <g
           id="g4777"
           transform="matrix(0.43747261,0,0,-0.4553055,78.712176,33.726618)">
          <path
             d="M 0,0 41.75,41.75 82.746,0 41.373,-42.125 0,0 Z"
             style="fill:#fee69d;fill-opacity:1;fill-rule:nonzero;stroke:none"
             id="path4779"
             inkscape:connector-curvature="0" />
        </g>
        <g
           id="g4781"
           transform="matrix(0.43747261,0,0,-0.4553055,114.91133,33.726618)">
          <path
             d="M 0,0 42.504,41.75 84.253,0 42.126,-42.125 0,0 Z"
             style="fill:#fee69d;fill-opacity:1;fill-rule:nonzero;stroke:none"
             id="path4783"
             inkscape:connector-curvature="0" />
        </g>
        <g
           id="g4785"
           transform="matrix(0.43747261,0,0,-0.4553055,151.76966,33.726618)">
          <path
             d="M 0,0 41.748,41.75 82.744,0 41.372,-42.125 0,0 Z"
             style="fill:#fee69d;fill-opacity:1;fill-rule:nonzero;stroke:none"
             id="path4787"
             inkscape:connector-curvature="0" />
        </g>
        <g
           id="g4789"
           transform="matrix(0.43747261,0,0,-0.4553055,187.96799,33.726618)">
          <path
             d="M 0,0 42.503,41.75 83.499,0 42.126,-42.125 0,0 Z"
             style="fill:#fee69d;fill-opacity:1;fill-rule:nonzero;stroke:none"
             id="path4791"
             inkscape:connector-curvature="0" />
        </g>
        <g
           id="g4793"
           transform="matrix(0.43747261,0,0,-0.4553055,78.712176,71.74399)">
          <path
             d="M 0,0 41.75,41.75 82.746,0 41.373,-42.125 0,0 Z"
             style="fill:#fee69d;fill-opacity:1;fill-rule:nonzero;stroke:none"
             id="path4795"
             inkscape:connector-curvature="0" />
        </g>
        <g
           id="g4797"
           transform="matrix(0.43747261,0,0,-0.4553055,114.91133,71.74399)">
          <path
             d="M 0,0 42.504,41.75 83.498,0 42.126,-42.125 0,0 Z"
             style="fill:#fee69d;fill-opacity:1;fill-rule:nonzero;stroke:none"
             id="path4799"
             inkscape:connector-curvature="0" />
        </g>
        <g
           id="g4801"
           transform="matrix(0.43747261,0,0,-0.4553055,151.76966,71.74399)">
          <path
             d="M 0,0 41.748,41.75 82.744,0 41.372,-42.125 0,0 Z"
             style="fill:#fee69d;fill-opacity:1;fill-rule:nonzero;stroke:none"
             id="path4803"
             inkscape:connector-curvature="0" />
        </g>
        <g
           id="g4805"
           transform="matrix(0.43747261,0,0,-0.4553055,187.96799,71.74399)">
          <path
             d="M 0,0 42.503,41.75 83.499,0 42.126,-42.125 0,0 Z"
             style="fill:#fee69d;fill-opacity:1;fill-rule:nonzero;stroke:none"
             id="path4807"
             inkscape:connector-curvature="0" />
        </g>
        <g
           id="g4809"
           transform="matrix(0.43747261,0,0,-0.4553055,78.712176,109.76132)">
          <path
             d="M 0,0 41.75,41.75 82.746,0 41.373,-42.125 0,0 Z"
             style="fill:#fee69d;fill-opacity:1;fill-rule:nonzero;stroke:none"
             id="path4811"
             inkscape:connector-curvature="0" />
        </g>
        <g
           id="g4813"
           transform="matrix(0.43747261,0,0,-0.4553055,114.91133,109.76132)">
          <path
             d="M 0,0 43.504,41.75 84.498,0 42.126,-42.125 0,0 Z"
             style="fill:#fee69d;fill-opacity:1;fill-rule:nonzero;stroke:none"
             id="path4815"
             inkscape:connector-curvature="0" />
        </g>
        <g
           id="g4817"
           transform="matrix(0.43747261,0,0,-0.4553055,151.76966,109.76132)">
          <path
             d="M 0,0 41.748,41.75 82.744,0 41.372,-42.125 0,0 Z"
             style="fill:#fee69d;fill-opacity:1;fill-rule:nonzero;stroke:none"
             id="path4819"
             inkscape:connector-curvature="0" />
        </g>
        <g
           id="g4821"
           transform="matrix(0.43747261,0,0,-0.4553055,187.96799,109.76132)">
          <path
             d="M 0,0 42.503,41.75 83.499,0 42.126,-42.125 0,0 Z"
             style="fill:#fee69d;fill-opacity:1;fill-rule:nonzero;stroke:none"
             id="path4823"
             inkscape:connector-curvature="0" />
        </g>
        <g
           id="g4825"
           transform="matrix(0.43747261,0,0,-0.4553055,78.712176,147.77846)">
          <path
             d="M 0,0 41.75,41.75 82.746,0 41.373,-42.125 0,0 Z"
             style="fill:#fee69d;fill-opacity:1;fill-rule:nonzero;stroke:none"
             id="path4827"
             inkscape:connector-curvature="0" />
        </g>
        <g
           id="g4829"
           transform="matrix(0.43747261,0,0,-0.4553055,114.91133,147.77846)">
          <path
             d="M 0,0 42.504,41.75 83.498,0 42.126,-42.125 0,0 Z"
             style="fill:#fee69d;fill-opacity:1;fill-rule:nonzero;stroke:none"
             id="path4831"
             inkscape:connector-curvature="0" />
        </g>
        <g
           id="g4833"
           transform="matrix(0.43747261,0,0,-0.4553055,151.43942,147.77846)">
          <path
             d="M 0,0 42.503,41.75 83.499,0 42.127,-42.125 0,0 Z"
             style="fill:#fee69d;fill-opacity:1;fill-rule:nonzero;stroke:none"
             id="path4835"
             inkscape:connector-curvature="0" />
        </g>
        <g
           id="g4837"
           transform="matrix(0.43747261,0,0,-0.4553055,187.96799,147.77846)">
          <path
             d="M 0,0 42.503,41.75 83.499,0 42.126,-42.125 0,0 Z"
             style="fill:#fee69d;fill-opacity:1;fill-rule:nonzero;stroke:none"
             id="path4839"
             inkscape:connector-curvature="0" />
        </g>
        <g
           id="g4841"
           transform="matrix(0.43747261,0,0,-0.4553055,96.811774,52.906363)">
          <path
             d="M 0,0 41.373,42.125 83.499,0 41.373,-41.374 0,0 Z"
             style="fill:#fdbf02;fill-opacity:1;fill-rule:nonzero;stroke:none"
             id="path4843"
             inkscape:connector-curvature="0" />
        </g>
        <g
           id="g4845"
           transform="matrix(0.43747261,0,0,-0.4553055,133.3403,90.923507)">
          <path
             d="M 0,0 41.372,42.125 83.499,0 42.127,-41.374 0,0 Z"
             style="fill:#fdbf02;fill-opacity:1;fill-rule:nonzero;stroke:none"
             id="path4847"
             inkscape:connector-curvature="0" />
        </g>
        <g
           id="g4849"
           transform="matrix(0.43747261,0,0,-0.4553055,96.811774,128.94083)">
          <path
             d="M 0,0 41.373,42.125 83.499,0 41.373,-41.374 0,0 Z"
             style="fill:#fdbf02;fill-opacity:1;fill-rule:nonzero;stroke:none"
             id="path4851"
             inkscape:connector-curvature="0" />
        </g>
        <g
           id="g4853"
           transform="matrix(0.43747261,0,0,-0.4553055,169.86882,128.94083)">
          <path
             d="M 0,0 41.372,42.125 83.498,0 41.372,-41.374 0,0 Z"
             style="fill:#fdbf02;fill-opacity:1;fill-rule:nonzero;stroke:none"
             id="path4855"
             inkscape:connector-curvature="0" />
        </g>
        <g
           id="g4857"
           transform="matrix(0.43747261,0,0,-0.4553055,78.655785,14.628465)">
          <path
             d="M 0,0 0,-41.946 42.222,-0.196 0,0 Z"
             style="fill:#fdbf02;fill-opacity:1;fill-rule:nonzero;stroke:none"
             id="path4859"
             inkscape:connector-curvature="0" />
        </g>
        <g
           id="g4861"
           transform="matrix(0.43747261,0,0,-0.4553055,133.50562,14.717842)">
          <path
             d="M 0,0 41.749,-41.75 84.621,0.753 0,0 Z"
             style="fill:#fdbf02;fill-opacity:1;fill-rule:nonzero;stroke:none"
             id="path4863"
             inkscape:connector-curvature="0" />
        </g>
        <g
           id="g4865"
           transform="matrix(0.43747261,0,0,-0.4553055,224.33416,14.375042)">
          <path
             d="M 0,0 0.371,-42.502 -40.625,-0.753 0,0 Z"
             style="fill:#fdbf02;fill-opacity:1;fill-rule:nonzero;stroke:none"
             id="path4867"
             inkscape:connector-curvature="0" />
        </g>
        <g
           id="g4869"
           transform="matrix(0.43747261,0,0,-0.4553055,78.655785,71.74399)">
          <path
             d="M 0,0 42.221,-42.125 0,-83.499 0,0 Z"
             style="fill:#fdbf02;fill-opacity:1;fill-rule:nonzero;stroke:none"
             id="path4871"
             inkscape:connector-curvature="0" />
        </g>
        <g
           id="g4873"
           transform="matrix(0.43747261,0,0,-0.4553055,78.712176,147.72264)">
          <path
             d="m 0,0 41.373,-42.125 -41.017,0 L 0,0 Z"
             style="fill:#fdbf02;fill-opacity:1;fill-rule:nonzero;stroke:none"
             id="path4875"
             inkscape:connector-curvature="0" />
        </g>
        <g
           id="g4877"
           transform="matrix(0.43747261,0,0,-0.4553055,133.3403,166.44708)">
          <path
             d="M 0,0 41.372,41.002 83.499,0 0,0 Z"
             style="fill:#fdbf02;fill-opacity:1;fill-rule:nonzero;stroke:none"
             id="path4879"
             inkscape:connector-curvature="0" />
        </g>
        <g
           id="g4881"
           transform="matrix(0.43747261,0,0,-0.4553055,206.39691,166.44708)">
          <path
             d="M 0,0 41.373,41.125 41.598,0 0,0 Z"
             style="fill:#fdbf02;fill-opacity:1;fill-rule:nonzero;stroke:none"
             id="path4883"
             inkscape:connector-curvature="0" />
        </g>
        <g
           id="g4885"
           transform="matrix(0.43747261,0,0,-0.4553055,224.33416,71.74399)">
          <path
             d="M 0,0 -41.002,-42.125 0,-83.499 0,0 Z"
             style="fill:#fdbf02;fill-opacity:1;fill-rule:nonzero;stroke:none"
             id="path4887"
             inkscape:connector-curvature="0" />
        </g>
        <g
           id="g4889"
           transform="matrix(0.43747261,0,0,-0.4553055,169.86882,52.906363)">
          <path
             d="M 0,0 41.372,42.125 83.498,0 41.75,-42.736 0,0 Z"
             style="fill:#fdbf02;fill-opacity:1;fill-rule:nonzero;stroke:none"
             id="path4891"
             inkscape:connector-curvature="0" />
        </g>
        <g
           id="g4893"
           transform="matrix(0.43747261,0,0,-0.4553055,78.655785,14.628465)">
          <path
             d="M 0,0 332.88,-333.011"
             style="fill:none;stroke:#eda304;stroke-width:1.69299996;stroke-linecap:butt;stroke-linejoin:miter;stroke-miterlimit:10;stroke-dasharray:none;stroke-opacity:1"
             id="path4895"
             inkscape:connector-curvature="0" />
        </g>
        <g
           id="g4897"
           transform="matrix(0.43747261,0,0,-0.4553055,115.47567,14.717842)">
          <path
             d="M 0,0 -82.531,-83.875 166.084,-332.113 248.078,-252 0,0 Z"
             style="fill:none;stroke:#eda304;stroke-width:1.69299996;stroke-linecap:butt;stroke-linejoin:miter;stroke-miterlimit:10;stroke-dasharray:none;stroke-opacity:1"
             id="path4899"
             inkscape:connector-curvature="0" />
        </g>
        <g
           id="g4901"
           transform="matrix(0.43747261,0,0,-0.4553055,151.68681,14.717842)">
          <path
             d="M 0,0 -165.305,-169.065 -0.565,-332.113 165.305,-169.065 0,0 Z"
             style="fill:none;stroke:#eda304;stroke-width:1.69299996;stroke-linecap:butt;stroke-linejoin:miter;stroke-miterlimit:10;stroke-dasharray:none;stroke-opacity:1"
             id="path4903"
             inkscape:connector-curvature="0" />
        </g>
        <g
           id="g4905"
           transform="matrix(0.43747261,0,0,-0.4553055,187.96799,14.717842)">
          <path
             d="m 0,0 -248.238,-252.846 82.7,-79.267 L 82.371,-81.617 0,0 Z"
             style="fill:none;stroke:#eda304;stroke-width:1.69299996;stroke-linecap:butt;stroke-linejoin:miter;stroke-miterlimit:10;stroke-dasharray:none;stroke-opacity:1"
             id="path4907"
             inkscape:connector-curvature="0" />
        </g>
        <g
           id="g4909"
           transform="matrix(0.43747261,0,0,-0.4553055,78.822419,166.25011)">
          <path
             d="M 0,0 331.862,332.814"
             style="fill:none;stroke:#eda304;stroke-width:1.69299996;stroke-linecap:butt;stroke-linejoin:miter;stroke-miterlimit:10;stroke-dasharray:none;stroke-opacity:1"
             id="path4911"
             inkscape:connector-curvature="0" />
        </g>
        <g
           id="g5329"
           transform="matrix(0.43747261,0,0,-0.4553055,224.59477,166.44708)">
          <path
             d="M 0,0 -333.811,0 -334,334 -0.19,334 0,0 Z"
             style="fill:none;stroke:#ffffff;stroke-width:2;stroke-linecap:butt;stroke-linejoin:miter;stroke-miterlimit:10;stroke-dasharray:none;stroke-opacity:1"
             id="path5331"
             inkscape:connector-curvature="0" />
        </g>
      </g>
      <ellipse
         cx="369.05038"
         cy="529.45685"
         rx="131.85271"
         ry="73.418388"
         style="opacity:0.656;fill:#aa5406;fill-opacity:1;stroke:none;stroke-width:2.43600011;stroke-miterlimit:4;stroke-dasharray:none;stroke-opacity:1"
         id="ellipse7492" />
      <path
         sodipodi:nodetypes="cccc"
         inkscape:connector-curvature="0"
         id="path4136"
         d="m 245.26112,554.61915 c 249.5582,-3.46466 249.5582,-2.30977 249.5582,-2.30977 C 487.50966,757.96896 411.84621,701.19 376.12701,762.49896 337.13606,700.53634 251.90794,758.83574 245.26112,554.61915 Z"
         style="fill:#fad400;fill-opacity:1;fill-rule:evenodd;stroke:none;stroke-width:1px;stroke-linecap:butt;stroke-linejoin:miter;stroke-opacity:1" />
      <g
         transform="translate(2,0)"
         id="g8362">
        <text
           xml:space="preserve"
           style="font-style:normal;font-variant:normal;font-weight:normal;font-stretch:normal;font-size:24.83694267px;line-height:100%;font-family:'Arial Rounded MT Bold';-inkscape-font-specification:'Arial Rounded MT Bold, Normal';text-align:start;letter-spacing:0px;word-spacing:0px;writing-mode:lr-tb;text-anchor:start;fill:#f67300;fill-opacity:1;stroke:none;stroke-width:1px;stroke-linecap:butt;stroke-linejoin:miter;stroke-opacity:1"
           x="294.77924"
           y="674.20074"
           id="text4171"
           sodipodi:linespacing="100%"
           transform="scale(1.0218063,0.97865906)"><tspan
             sodipodi:role="line"
             id="tspan4173"
             x="294.77924"
             y="674.20074"
             style="font-style:normal;font-variant:normal;font-weight:normal;font-stretch:normal;font-size:24.83694267px;line-height:100%;font-family:'Arial Rounded MT Bold';-inkscape-font-specification:'Arial Rounded MT Bold, Normal';text-align:start;writing-mode:lr-tb;text-anchor:start;fill:#f67300;fill-opacity:1;stroke:none;stroke-opacity:1">G A M I N G</tspan></text>
        <flowRoot
           xml:space="preserve"
           id="flowRoot4159"
           style="font-style:normal;font-weight:normal;font-size:40px;line-height:125%;font-family:sans-serif;letter-spacing:0px;word-spacing:0px;fill:#ffffff;fill-opacity:1;stroke:#faec4b;stroke-width:1px;stroke-linecap:butt;stroke-linejoin:miter;stroke-opacity:1"
           transform="matrix(0.87608311,0,0,0.90851939,78.082851,302.16694)"><flowRegion
             id="flowRegion4161"><rect
               id="rect4163"
               width="244.45694"
               height="112.632"
               x="229.80971"
               y="279.09042"
               style="fill:#ffffff;fill-opacity:1;stroke:#faec4b;stroke-opacity:1" /></flowRegion><flowPara
             id="flowPara4165"
             style="font-style:normal;font-variant:normal;font-weight:normal;font-stretch:normal;font-size:90px;line-height:125%;font-family:PilGi;-inkscape-font-specification:'PilGi, Normal';text-align:start;writing-mode:lr-tb;text-anchor:start;fill:#ffffff;fill-opacity:1;stroke:#faec4b;stroke-opacity:1"><flowSpan
               style="fill:#ffffff;fill-opacity:1;stroke:#faec4b;stroke-opacity:1"
               id="flowSpan4169">Larm</flowSpan></flowPara></flowRoot>      </g>
    </g>
  </g>
  <g
     inkscape:groupmode="layer"
     id="layer3"
     inkscape:label="Layer 3" />
</svg>
